<?xml version="1.0" standalone="no"?>
<!DOCTYPE svg PUBLIC "-//W3C//DTD SVG 20010904//EN"
 "http://www.w3.org/TR/2001/REC-SVG-20010904/DTD/svg10.dtd">
<svg version="1.0" xmlns="http://www.w3.org/2000/svg"
 width="1024.000000pt" height="1024.000000pt" viewBox="0 0 1024.000000 1024.000000"
 preserveAspectRatio="xMidYMid meet">
<metadata>
Created by potrace 1.14, written by Peter Selinger 2001-2017
</metadata>
<g transform="translate(0.000000,1024.000000) scale(0.100000,-0.100000)"
fill="#000000" stroke="none">
<path d="M0 5120 l0 -5120 5120 0 5120 0 0 5120 0 5120 -5120 0 -5120 0 0
-5120z m6035 3193 c297 -49 547 -120 775 -220 752 -332 1276 -951 1445 -1706
14 -65 28 -146 32 -180 5 -55 3 -64 -17 -82 -21 -19 -38 -20 -542 -23 -358 -2
-532 1 -560 9 -59 16 -89 53 -122 154 -156 481 -557 823 -1082 925 -253 49
-517 47 -754 -6 -147 -33 -230 -63 -361 -131 -452 -233 -755 -715 -858 -1363
-54 -340 -56 -783 -5 -1110 134 -855 574 -1391 1256 -1530 385 -79 855 -22
1182 142 188 94 367 245 474 401 29 42 76 125 103 185 75 162 82 174 109 194
24 18 55 19 585 18 619 0 595 2 595 -64 0 -41 -41 -219 -75 -326 -238 -749
-839 -1316 -1658 -1564 -500 -151 -1103 -177 -1641 -70 -518 103 -959 328
-1314 669 -504 484 -793 1135 -888 2000 -25 225 -25 745 0 970 70 639 232
1123 527 1575 80 123 97 179 80 262 -54 256 -507 558 -1238 823 -84 30 -133
53 -133 62 0 11 295 13 1978 10 1967 -3 1978 -3 2107 -24z"/>
</g>
</svg>
